<?xml version="1.0" encoding="UTF-8"?>
<svg id="Ebene_1" data-name="Ebene 1" xmlns="http://www.w3.org/2000/svg" viewBox="0 0 292.68 100">
  <defs>
    <style>
      .cls-1 {
        fill: none;
      }

      .cls-2 {
        fill: gold;
      }

      .cls-3 {
        fill: #e71d73;
      }
    </style>
  </defs>
  <g>
    <path class="cls-3" d="M23.59,67.05c0-1.5,1.01-2.95,3.57-2.95s3.52,1.32,3.57,3h6.7c-.22-5.46-4.32-9.12-10.35-9.12s-10.35,3.88-10.35,9.34c0,11.54,14.19,6.7,14.19,11.54,0,1.81-1.1,2.95-3.88,2.95s-3.88-1.15-3.88-2.95h-6.96c.13,5.59,4.41,9.07,10.84,9.07s10.84-3.61,10.84-9.34c0-11.54-14.27-6.7-14.27-11.54Z"/>
    <path class="cls-1" d="M125.05,65.07h-4.63v6.56h4.63c2.86,0,3.7-1.41,3.7-3.3s-.84-3.26-3.7-3.26Z"/>
    <path class="cls-1" d="M95.26,64.49c-3.88,0-5.64,2.07-5.64,6.04v2.38h11.28v-2.38c0-3.96-1.72-6.04-5.64-6.04Z"/>
    <path class="cls-1" d="M104.04,25.47c0-3.57-1.81-6.26-6.78-6.26h-9.34v12.55h9.34c4.98,0,6.78-2.73,6.78-6.3Z"/>
    <path class="cls-1" d="M64.96,18.64c-7.18,0-12.16,5.11-12.16,12.07s4.98,12.07,12.16,12.07,12.16-5.11,12.16-12.07-4.98-12.07-12.16-12.07Z"/>
    <path class="cls-3" d="M64.96,15.73c-8.99,0-15.33,6.34-15.33,14.98s6.34,14.98,15.33,14.98,15.33-6.34,15.33-14.98-6.34-14.98-15.33-14.98ZM64.96,42.78c-7.18,0-12.16-5.11-12.16-12.07s4.98-12.07,12.16-12.07,12.16,5.11,12.16,12.07-4.98,12.07-12.16,12.07Z"/>
    <path class="cls-3" d="M87.92,34.68h9.29c6.92,0,10.04-3.96,10.04-9.21s-3.08-9.16-10.04-9.16h-12.47v28.81h3.17v-10.44ZM87.92,19.21h9.34c4.98,0,6.78,2.69,6.78,6.26s-1.81,6.3-6.78,6.3h-9.34v-12.55Z"/>
    <polygon class="cls-3" points="132.28 42.21 114.3 42.21 114.3 31.95 129.72 31.95 129.72 29.04 114.3 29.04 114.3 19.21 132.28 19.21 132.28 16.31 111.13 16.31 111.13 45.12 132.28 45.12 132.28 42.21"/>
    <path class="cls-3" d="M139.77,27.63c0-5.55,3.08-8.99,8.94-8.99s8.9,3.44,8.9,8.99v17.49h3.17v-17.49c0-7.27-4.32-11.89-12.07-11.89s-12.11,4.63-12.11,11.89v17.49h3.17v-17.49Z"/>
    <path class="cls-3" d="M67.82,57.88c-3.52,0-6.26,1.37-7.93,3.92h-.09c-1.67-2.56-4.45-3.92-7.93-3.92-5.81,0-10.31,3.44-10.31,11.15v18.24h7.14v-18.24c0-3.35,1.63-4.54,3.79-4.54s3.79,1.19,3.79,4.54v18.24h7.14v-18.24c0-3.35,1.67-4.54,3.79-4.54s3.79,1.19,3.79,4.54v18.24h7.14v-18.24c0-7.71-4.49-11.15-10.31-11.15Z"/>
    <path class="cls-3" d="M95.31,57.88c-8.19,0-12.64,4.8-12.64,12.64v16.74h6.96v-8.19h11.28v8.19h7.14v-16.74c0-7.84-4.49-12.64-12.73-12.64ZM100.9,72.91h-11.28v-2.38c0-3.96,1.76-6.04,5.64-6.04s5.64,2.07,5.64,6.04v2.38Z"/>
    <path class="cls-3" d="M130.6,77.22c3.66-1.54,5.37-4.85,5.37-8.9,0-5.73-3.39-9.87-11.01-9.87h-11.67v28.81h7.14v-9.03h3.04l5.11,9.03h8.46l-6.43-9.96v-.09ZM125.05,71.63h-4.63v-6.56h4.63c2.86,0,3.7,1.37,3.7,3.26s-.84,3.3-3.7,3.3Z"/>
    <polygon class="cls-3" points="138.62 65.07 146.46 65.07 146.46 87.27 153.59 87.27 153.59 65.07 161.48 65.07 161.48 58.46 138.62 58.46 138.62 65.07"/>
    <path class="cls-3" d="M179.5,60.79c5.37,0,9.56,2.91,11.28,7.31h3.35c-1.85-6.12-7.4-10.22-14.63-10.22-8.99,0-15.33,6.34-15.33,14.98s6.34,14.98,15.33,14.98c7.22,0,12.78-4.1,14.63-10.22h-3.35c-1.72,4.41-5.9,7.31-11.28,7.31-7.18,0-12.16-5.11-12.16-12.07s4.98-12.07,12.16-12.07Z"/>
    <rect class="cls-3" x="198.84" y="58.46" width="3.17" height="28.81"/>
    <polygon class="cls-3" points="206.24 61.36 216.02 61.36 216.02 87.27 219.19 87.27 219.19 61.36 228.97 61.36 228.97 58.46 206.24 58.46 206.24 61.36"/>
    <polygon class="cls-3" points="244.57 71.94 244.48 71.94 234.88 58.46 231.04 58.46 242.9 74.62 242.9 87.27 246.07 87.27 246.07 74.58 257.87 58.46 254.13 58.46 244.57 71.94"/>
    <path class="cls-2" d="M193.8,35.52c-.1-.1-.19-.2-.28-.3.13.24.27.48.41.71l.09-.2-.23-.22Z"/>
  </g>
  <g>
    <path class="cls-2" d="M262.9,15.93h-61.65c-6.12,0-11.08,4.96-11.08,11.08v3.98c0,2.78,1.03,5.31,2.71,7.25l-5.29,11.66h-37.76v-13.21l.29-.1c1.9-.68,3.18-2.48,3.18-4.47,0-2.63-2.14-4.76-4.76-4.76-2.97.06-4.37,2.17-4.67,3.97-.33,1.93.5,4.31,3.09,5.27l.29.11v15.8h42.02l5.64-12.43c1.8,1.26,3.98,2,6.34,2h61.65c6.12,0,11.08-4.96,11.08-11.08v-3.98c0-6.12-4.96-11.08-11.08-11.08ZM146.36,32.11c0-1.2.98-2.17,2.17-2.17h.02c1.41.06,2.15,1.14,2.15,2.17,0,1.04-.74,2.11-2.15,2.17-1.22,0-2.19-.97-2.19-2.17ZM213.69,35.83h-3.47v-5.51h-5.25v5.51h-3.47v-14.03h3.47v5.3h5.25v-5.3h3.47v14.03ZM223.32,36.1c-4.38,0-7.46-3.09-7.46-7.29s3.09-7.29,7.46-7.29,7.46,3.09,7.46,7.29-3.09,7.29-7.46,7.29ZM250.43,35.83h-3.47v-8.88c0-1.63-.79-2.21-1.84-2.21s-1.84.58-1.84,2.21v8.88h-3.47v-8.88c0-1.63-.81-2.21-1.84-2.21s-1.84.58-1.84,2.21v8.88h-3.47v-8.88c0-3.75,2.19-5.43,5.02-5.43,1.69,0,3.05.66,3.86,1.91h.04c.82-1.24,2.14-1.91,3.86-1.91,2.83,0,5.02,1.67,5.02,5.43v8.88ZM263.34,25.02h-6.88v2.29h5.64v2.79h-5.64v2.51h6.88v3.22h-10.36v-14.03h10.36v3.22Z"/>
    <path class="cls-2" d="M223.32,24.74c-2.38,0-3.95,1.72-3.95,4.08s1.57,4.08,3.95,4.08,3.95-1.72,3.95-4.08-1.57-4.08-3.95-4.08Z"/>
  </g>
</svg>